# xmcd
#
# Track frame offsets:
#	150
#	16775
#	36034
#	55406
#	76809
#	96208
#	115701
#	132832
#	153147
#	174972
#	194368
#	220352
#
# Disc length: 3247 seconds
#
# Revision: 1
# Processed by: cddbd v1.5.1PL0 Copyright (c) Steve Scherf et al.
# Submitted via: audiograbber 1.83.01
#
DISCID=8f0cad0c
DTITLE=Erik och Ulrika - Högst av allt
DYEAR=2005
DGENRE=
TTITLE0=Vår lovsång tillhör dig 3,41
TTITLE1=Så stor är din makt 4,16
TTITLE2=Undrens Gud 4,18
TTITLE3=Högst av allt 4,45
TTITLE4=Och jag vill älska dig 4,18
TTITLE5=Jag behöver din nåd 4,19
TTITLE6=Idag får vi vara Elia 3,48
TTITLE7=Vi säger ja 4,30
TTITLE8=Du talar 4,51
TTITLE9=Kom med regn 4,18
TTITLE10=Frid till denna plats 5,46
TTITLE11=Kom 5,09
EXTD=
EXTT0=
EXTT1=
EXTT2=
EXTT3=
EXTT4=
EXTT5=
EXTT6=
EXTT7=
EXTT8=
EXTT9=
EXTT10=
EXTT11=
PLAYORDER=
